<?xml version="1.0" encoding="UTF-8" standalone="no"?>
<svg
   xmlns:dc="http://purl.org/dc/elements/1.1/"
   xmlns:cc="http://creativecommons.org/ns#"
   xmlns:rdf="http://www.w3.org/1999/02/22-rdf-syntax-ns#"
   xmlns:svg="http://www.w3.org/2000/svg"
   xmlns="http://www.w3.org/2000/svg"
   xmlns:sodipodi="http://sodipodi.sourceforge.net/DTD/sodipodi-0.dtd"
   xmlns:inkscape="http://www.inkscape.org/namespaces/inkscape"
   version="1.1"
   viewBox="0 0 30 30"
   xml:space="preserve"
   id="svg16"
   sodipodi:docname="add-photo.svg"
   width="30"
   height="30"
   inkscape:version="0.92.4 5da689c313, 2019-01-14"><metadata
     id="metadata22"><rdf:RDF><cc:Work
         rdf:about=""><dc:format>image/svg+xml</dc:format><dc:type
           rdf:resource="http://purl.org/dc/dcmitype/StillImage" /><dc:title></dc:title></cc:Work></rdf:RDF></metadata><defs
     id="defs20" /><sodipodi:namedview
     pagecolor="#ffffff"
     bordercolor="#666666"
     borderopacity="1"
     objecttolerance="10"
     gridtolerance="10"
     guidetolerance="10"
     inkscape:pageopacity="0"
     inkscape:pageshadow="2"
     inkscape:window-width="1920"
     inkscape:window-height="1019"
     id="namedview18"
     showgrid="false"
     fit-margin-top="0"
     fit-margin-left="0"
     fit-margin-right="0"
     fit-margin-bottom="0"
     inkscape:zoom="4.9166667"
     inkscape:cx="13.07983"
     inkscape:cy="12.30544"
     inkscape:window-x="0"
     inkscape:window-y="0"
     inkscape:window-maximized="1"
     inkscape:current-layer="Icons" /><g
     id="Padding__x26__Artboard"
     transform="translate(-10.92017,-6.1020497)" /><g
     id="Icons"
     transform="translate(-10.92017,-6.1020497)"><g
       id="g13"
       transform="translate(3.22,-2.8980003)"><path
         d="m 34.74927,16.55811 c 0.19336,0 0.3501,-0.15625 0.3501,-0.34961 v -1.63086 h 1.63037 c 0.19336,0 0.3501,-0.15625 0.3501,-0.34961 0,-0.19336 -0.15674,-0.34961 -0.3501,-0.34961 h -1.63037 v -1.63086 c 0,-0.19336 -0.15674,-0.34961 -0.3501,-0.34961 -0.19336,0 -0.3501,0.15625 -0.3501,0.34961 v 1.63086 H 32.7688 c -0.19336,0 -0.3501,0.15625 -0.3501,0.34961 0,0.19336 0.15674,0.34961 0.3501,0.34961 h 1.63037 v 1.63086 c 0,0.19336 0.15674,0.34961 0.3501,0.34961 z"
         style="fill:#303030"
         id="path3"
         inkscape:connector-curvature="0" /><g
         id="g11"><path
           d="m 22.84106,31.62842 c 2.15283,0 3.90381,-1.75195 3.90381,-3.9043 0,-2.15235 -1.75098,-3.9043 -3.90381,-3.9043 -2.15283,0 -3.9043,1.75195 -3.9043,3.9043 0,2.15235 1.75147,3.9043 3.9043,3.9043 z m 0,-7.06153 c 1.74121,0 3.15771,1.41602 3.15771,3.15723 0,1.74121 -1.4165,3.15723 -3.15771,3.15723 -1.74121,0 -3.1582,-1.41602 -3.1582,-3.15723 0,-1.74121 1.41699,-3.15723 3.1582,-3.15723 z"
           style="fill:#303030"
           id="path5"
           inkscape:connector-curvature="0" /><path
           d="m 27.10712,26.01221 c 0.21362,0.53021 0.33795,1.10602 0.33795,1.71191 0,2.53906 -2.06543,4.60352 -4.604,4.60352 -2.53906,0 -4.60449,-2.06445 -4.60449,-4.60352 0,-0.6059 0.12439,-1.1817 0.33801,-1.71191 h -6.95422 -0.7002 v 9.07129 c 0,0.56152 0.45752,1.01855 1.02002,1.01855 h 21.79053 c 0.56836,0 1.03076,-0.46191 1.03076,-1.03027 v -9.05957 h -0.7002 z"
           style="fill:#303030"
           id="path7"
           inkscape:connector-curvature="0" /><path
           d="m 33.74146,19.33838 h -5.86719 l -1.24951,-2.2168 c -0.1748,-0.3125 -0.50586,-0.50586 -0.86328,-0.50586 h -5.84131 c -0.35742,0 -0.68848,0.19336 -0.86279,0.50488 l -1.25049,2.21777 h -5.87744 c -0.55664,0 -1.00928,0.45215 -1.00928,1.00879 v 4.96582 h 0.7002 7.31598 c 0.8125,-1.31042 2.25238,-2.19238 3.90472,-2.19238 1.65204,0 3.0918,0.88196 3.90424,2.19238 h 7.31598 0.7002 V 20.3579 c -2e-5,-0.56249 -0.45753,-1.01952 -1.02003,-1.01952 z"
           style="fill:#303030"
           id="path9"
           inkscape:connector-curvature="0" /></g></g></g></svg>