<?xml version="1.0" encoding="UTF-8" standalone="no"?>
<svg
   xmlns:dc="http://purl.org/dc/elements/1.1/"
   xmlns:cc="http://creativecommons.org/ns#"
   xmlns:rdf="http://www.w3.org/1999/02/22-rdf-syntax-ns#"
   xmlns:svg="http://www.w3.org/2000/svg"
   xmlns="http://www.w3.org/2000/svg"
   xmlns:sodipodi="http://sodipodi.sourceforge.net/DTD/sodipodi-0.dtd"
   xmlns:inkscape="http://www.inkscape.org/namespaces/inkscape"
   id="Expanded"
   viewBox="0 0 58 57.999999"
   version="1.1"
   sodipodi:docname="humidity.svg"
   width="58"
   height="58"
   inkscape:version="0.92.4 5da689c313, 2019-01-14">
  <metadata
     id="metadata2469">
    <rdf:RDF>
      <cc:Work
         rdf:about="">
        <dc:format>image/svg+xml</dc:format>
        <dc:type
           rdf:resource="http://purl.org/dc/dcmitype/StillImage" />
        <dc:title></dc:title>
      </cc:Work>
    </rdf:RDF>
  </metadata>
  <defs
     id="defs2467" />
  <sodipodi:namedview
     pagecolor="#ffffff"
     bordercolor="#666666"
     borderopacity="1"
     objecttolerance="10"
     gridtolerance="10"
     guidetolerance="10"
     inkscape:pageopacity="0"
     inkscape:pageshadow="2"
     inkscape:window-width="1920"
     inkscape:window-height="1019"
     id="namedview2465"
     showgrid="false"
     fit-margin-top="0"
     fit-margin-left="0"
     fit-margin-right="0"
     fit-margin-bottom="0"
     inkscape:zoom="3.6875"
     inkscape:cx="28.942536"
     inkscape:cy="25.840881"
     inkscape:window-x="0"
     inkscape:window-y="0"
     inkscape:window-maximized="1"
     inkscape:current-layer="Expanded" />
  <path
     d="M 55.180185,26.368344 A 12.332885,12.398281 0 0 0 56.111157,21.759243 12.01255,12.076247 0 0 0 44.098607,9.6829945 h -0.640669 a 9.0094128,9.0571856 0 0 0 -8.608995,-6.6821921 8.6890781,8.7351523 0 0 0 -6.937248,3.320968 16.417152,16.504205 0 0 0 -3.49365,-0.3421603 c -0.520544,0 -1.051098,0 -1.561631,0.070445 A 16.256985,16.343188 0 0 0 12.495589,11.081827 l -0.120125,0.120762 c -0.230241,0.251589 -0.450471,0.513241 -0.670701,0.784956 l -0.370387,0.45286 c -0.130136,0.17108 -0.250262,0.34216 -0.370387,0.523304 -0.120126,0.181144 -0.380398,0.553495 -0.560586,0.835274 l -0.130136,0.231462 a 15.916629,16.001028 0 0 0 -2.0521433,5.635582 c 0,0 0,0.07045 0,0.100635 0,0.231462 -0.080084,0.462923 -0.110115,0.694385 A 9.2396533,9.288647 0 0 0 9.1120545,38.967896 H 51.236064 A 6.9472583,6.9840965 0 0 0 55.180185,26.368344 Z M 51.176001,36.955188 H 9.1320754 A 7.2377018,7.27608 0 0 1 9.0419814,22.40331 H 9.952933 l 0.06006,-0.915782 a 14.425071,14.501561 0 0 1 28.8101,1.006354 14.735395,14.81353 0 0 1 -0.660691,4.347449 1.0010459,1.006354 0 0 0 0.660691,1.257942 1.0010459,1.006354 0 0 0 0.290303,0.05032 1.0010459,1.006354 0 0 0 1.001046,-0.714511 16.747497,16.836302 0 0 0 0.750784,-4.941198 17.428209,17.520622 0 0 0 -0.190199,-2.425313 8.8992977,8.9464867 0 0 1 3.003138,0.82521 8.0083669,8.0508317 0 0 1 3.683849,10.697542 1.0010459,1.006354 0 0 0 0.470491,1.338451 0.94098311,0.94597272 0 0 0 0.43045,0.100636 1.0010459,1.006354 0 0 0 0.900941,-0.573622 A 10.010459,10.06354 0 0 0 44.529057,19.07228 10.420887,10.476145 0 0 0 40.22456,18.065926 16.437173,16.524332 0 0 0 29.97385,6.9859656 6.7370387,6.7727621 0 0 1 34.798891,4.9732581 7.0073211,7.0444777 0 0 1 41.636034,10.910749 l 0.170178,1.086862 1.061109,-0.261652 a 4.8851038,4.9110073 0 0 1 1.181234,-0.09057 10.010459,10.06354 0 0 1 10.010459,10.063541 10.69117,10.74786 0 0 1 -1.061109,4.629228 l -0.390408,0.865464 0.830868,0.442796 a 4.9351561,4.961325 0 0 1 -2.252353,9.308774 z"
     id="path2456"
     inkscape:connector-curvature="0"
     style="stroke-width:1.00369644" />
  <path
     d="m 52.317194,41.564289 a 4.0842671,4.1059241 0 0 0 -2.923054,1.257943 2.1021963,2.1133433 0 0 1 -1.591663,0.754765 2.1322277,2.1435339 0 0 1 -1.591663,-0.754765 4.0041835,4.0254158 0 0 0 -5.836098,0 2.0020917,2.0127079 0 0 1 -3.173315,0 4.0041835,4.0254158 0 0 0 -5.836097,0 2.0621545,2.0730892 0 0 1 -3.183326,0 4.0041835,4.0254158 0 0 0 -5.826087,0 2.0621545,2.0730892 0 0 1 -3.183326,0 4.0041835,4.0254158 0 0 0 -2.913043,-1.257943 4.104288,4.1260512 0 0 0 -2.923054,1.257943 2.0020917,2.0127079 0 0 1 -3.163305,0 4.104288,4.1260512 0 0 0 -2.9230538,-1.257943 1.0010459,1.006354 0 0 0 0,2.012708 2.1222172,2.1334704 0 0 1 1.5916629,0.754765 4.0041835,4.0254158 0 0 0 5.8260869,0 2.0020917,2.0127079 0 0 1 3.173315,0 4.0041835,4.0254158 0 0 0 5.836097,0 2.0621545,2.0730892 0 0 1 3.183326,0 4.0041835,4.0254158 0 0 0 5.836098,0 2.0020917,2.0127079 0 0 1 3.173315,0 4.0041835,4.0254158 0 0 0 5.836097,0 2.0621545,2.0730892 0 0 1 3.183326,0 4.0041835,4.0254158 0 0 0 5.836098,0 2.1322277,2.1435339 0 0 1 1.591663,-0.754765 1.0010459,1.006354 0 0 0 0,-2.012708 z"
     id="path2458"
     inkscape:connector-curvature="0"
     style="stroke-width:1.00369644" />
  <path
     d="m 52.317194,46.263962 a 4.124309,4.1461783 0 0 0 -2.923054,1.257943 2.1021963,2.1133433 0 0 1 -1.591663,0.754765 2.1322277,2.1435339 0 0 1 -1.591663,-0.754765 4.0041835,4.0254158 0 0 0 -5.836098,0 2.0020917,2.0127079 0 0 1 -3.173315,0 4.0041835,4.0254158 0 0 0 -5.836097,0 2.0621545,2.0730892 0 0 1 -3.183326,0 4.0041835,4.0254158 0 0 0 -5.826087,0 2.0621545,2.0730892 0 0 1 -3.183326,0 4.0041835,4.0254158 0 0 0 -5.836097,0 2.1021963,2.1133433 0 0 1 -1.581653,0.754765 2.1222172,2.1334704 0 0 1 -1.581652,-0.744702 4.0642462,4.0857971 0 0 0 -2.9230538,-1.268006 1.0010459,1.006354 0 1 0 0,2.012708 2.1222172,2.1334704 0 0 1 1.5916629,0.754765 4.0041835,4.0254158 0 0 0 5.8260869,0 2.0020917,2.0127079 0 0 1 3.173315,0 4.0041835,4.0254158 0 0 0 5.836097,0 2.0621545,2.0730892 0 0 1 3.183326,0 4.0041835,4.0254158 0 0 0 5.836098,0 2.0020917,2.0127079 0 0 1 3.173315,0 4.0041835,4.0254158 0 0 0 5.836097,0 2.0621545,2.0730892 0 0 1 3.183326,0 4.0041835,4.0254158 0 0 0 5.836098,0 2.1322277,2.1435339 0 0 1 1.591663,-0.754765 1.0010459,1.006354 0 0 0 0,-2.012708 z"
     id="path2460"
     inkscape:connector-curvature="0"
     style="stroke-width:1.00369644" />
  <path
     d="m 52.317194,50.963635 a 4.0842671,4.1059241 0 0 0 -2.923054,1.268006 2.0921859,2.1032798 0 0 1 -1.591663,0.744702 2.1222172,2.1334704 0 0 1 -1.591663,-0.744702 4.0041835,4.0254158 0 0 0 -5.836098,0 2.0721649,2.0831527 0 0 1 -3.173315,0 4.0041835,4.0254158 0 0 0 -5.836097,0 2.0821754,2.0932162 0 0 1 -3.183326,0 4.0041835,4.0254158 0 0 0 -5.826087,0 2.0821754,2.0932162 0 0 1 -3.183326,0 4.0041835,4.0254158 0 0 0 -5.836097,0 2.0621545,2.0730892 0 0 1 -3.163305,0 4.0642462,4.0857971 0 0 0 -2.9230538,-1.268006 1.0010459,1.006354 0 1 0 0,2.012708 2.1222172,2.1334704 0 0 1 1.5916629,0.754765 4.0041835,4.0254158 0 0 0 5.8260869,0 2.0020917,2.0127079 0 0 1 3.173315,0 4.0041835,4.0254158 0 0 0 5.836097,0 2.0621545,2.0730892 0 0 1 3.183326,0 4.0041835,4.0254158 0 0 0 5.836098,0 2.0020917,2.0127079 0 0 1 3.173315,0 4.0041835,4.0254158 0 0 0 5.836097,0 2.0621545,2.0730892 0 0 1 3.183326,0 4.0041835,4.0254158 0 0 0 5.836098,0 2.1322277,2.1435339 0 0 1 1.591663,-0.754765 1.0010459,1.006354 0 1 0 0,-2.012708 z"
     id="path2462"
     inkscape:connector-curvature="0"
     style="stroke-width:1.00369644" />
</svg>
