<?xml version="1.0" encoding="UTF-8" standalone="no"?>
<svg
   xmlns:dc="http://purl.org/dc/elements/1.1/"
   xmlns:cc="http://creativecommons.org/ns#"
   xmlns:rdf="http://www.w3.org/1999/02/22-rdf-syntax-ns#"
   xmlns:svg="http://www.w3.org/2000/svg"
   xmlns="http://www.w3.org/2000/svg"
   xmlns:sodipodi="http://sodipodi.sourceforge.net/DTD/sodipodi-0.dtd"
   xmlns:inkscape="http://www.inkscape.org/namespaces/inkscape"
   height="30.149"
   id="Layer_1"
   version="1.1"
   viewBox="0 0 30.149 30.149"
   width="30.149"
   xml:space="preserve"
   sodipodi:docname="iconfinder_sun_107191.svg"
   inkscape:version="0.92.4 5da689c313, 2019-01-14"><metadata
     id="metadata25"><rdf:RDF><cc:Work
         rdf:about=""><dc:format>image/svg+xml</dc:format><dc:type
           rdf:resource="http://purl.org/dc/dcmitype/StillImage" /><dc:title></dc:title></cc:Work></rdf:RDF></metadata><defs
     id="defs23" /><sodipodi:namedview
     pagecolor="#ffffff"
     bordercolor="#666666"
     borderopacity="1"
     objecttolerance="10"
     gridtolerance="10"
     guidetolerance="10"
     inkscape:pageopacity="0"
     inkscape:pageshadow="2"
     inkscape:window-width="716"
     inkscape:window-height="489"
     id="namedview21"
     showgrid="false"
     fit-margin-top="0"
     fit-margin-left="0"
     fit-margin-right="0"
     fit-margin-bottom="0"
     inkscape:zoom="4.9166667"
     inkscape:cx="14.538"
     inkscape:cy="15.17"
     inkscape:window-x="0"
     inkscape:window-y="0"
     inkscape:window-maximized="0"
     inkscape:current-layer="Layer_1" /><circle
     cx="14.816999"
     cy="14.879999"
     r="6.3130002"
     style="fill:none;stroke:#231f20;stroke-miterlimit:10"
     id="circle2" /><path
     d="m 15.565,4.059 c 0,0.391 -0.277,0.708 -0.62,0.708 v 0 c -0.343,0 -0.62,-0.317 -0.62,-0.708 V 0.71 C 14.325,0.317 14.602,0 14.945,0 v 0 c 0.343,0 0.62,0.317 0.62,0.71 z"
     style="fill:#231f20"
     id="path4"
     inkscape:connector-curvature="0" /><path
     d="m 15.565,29.439 c 0,0.393 -0.277,0.71 -0.62,0.71 v 0 c -0.343,0 -0.62,-0.317 -0.62,-0.71 V 26.09 c 0,-0.391 0.277,-0.708 0.62,-0.708 v 0 c 0.343,0 0.62,0.317 0.62,0.708 z"
     style="fill:#231f20"
     id="path6"
     inkscape:connector-curvature="0" /><path
     d="m 26.09,15.308 c -0.392,0 -0.709,-0.276 -0.709,-0.621 v 0 c 0,-0.342 0.317,-0.619 0.709,-0.619 h 3.351 c 0.391,0 0.708,0.277 0.708,0.619 v 0 c 0,0.345 -0.317,0.621 -0.708,0.621 z"
     style="fill:#231f20"
     id="path8"
     inkscape:connector-curvature="0" /><path
     d="M 0.708,15.308 C 0.317,15.308 0,15.032 0,14.687 v 0 c 0,-0.342 0.317,-0.619 0.708,-0.619 h 3.351 c 0.392,0 0.708,0.277 0.708,0.619 v 0 c 0,0.345 -0.317,0.621 -0.708,0.621 z"
     style="fill:#231f20"
     id="path10"
     inkscape:connector-curvature="0" /><path
     d="M 23.044,7.465 C 22.768,7.742 22.347,7.77 22.105,7.528 v 0 C 21.864,7.287 21.892,6.865 22.168,6.589 L 24.536,4.22 c 0.277,-0.276 0.696,-0.305 0.939,-0.063 v 0 c 0.242,0.244 0.215,0.665 -0.062,0.941 z"
     style="fill:#231f20"
     id="path12"
     inkscape:connector-curvature="0" /><path
     d="M 5.098,25.414 C 4.821,25.69 4.4,25.718 4.158,25.476 v 0 C 3.915,25.235 3.944,24.815 4.22,24.537 L 6.589,22.17 c 0.277,-0.275 0.697,-0.306 0.939,-0.062 v 0 c 0.243,0.241 0.214,0.662 -0.062,0.939 z"
     style="fill:#231f20"
     id="path14"
     inkscape:connector-curvature="0" /><path
     d="m 22.168,23.302 c -0.276,-0.276 -0.305,-0.697 -0.063,-0.938 v 0 c 0.242,-0.241 0.663,-0.216 0.939,0.063 l 2.369,2.366 c 0.277,0.278 0.305,0.698 0.062,0.939 v 0 c -0.243,0.243 -0.662,0.215 -0.939,-0.062 z"
     style="fill:#231f20"
     id="path16"
     inkscape:connector-curvature="0" /><path
     d="M 4.22,5.356 C 3.944,5.078 3.916,4.658 4.158,4.417 v 0 C 4.4,4.174 4.821,4.202 5.098,4.479 l 2.368,2.368 c 0.277,0.277 0.306,0.698 0.062,0.939 v 0 C 7.286,8.027 6.866,8.002 6.589,7.723 Z"
     style="fill:#231f20"
     id="path18"
     inkscape:connector-curvature="0" /></svg>