<?xml version="1.0" encoding="UTF-8" standalone="no"?>
<svg
   xmlns:dc="http://purl.org/dc/elements/1.1/"
   xmlns:cc="http://creativecommons.org/ns#"
   xmlns:rdf="http://www.w3.org/1999/02/22-rdf-syntax-ns#"
   xmlns:svg="http://www.w3.org/2000/svg"
   xmlns="http://www.w3.org/2000/svg"
   xmlns:xlink="http://www.w3.org/1999/xlink"
   xmlns:sodipodi="http://sodipodi.sourceforge.net/DTD/sodipodi-0.dtd"
   xmlns:inkscape="http://www.inkscape.org/namespaces/inkscape"
   enable-background="new 0 0 128 128"
   height="104"
   id="Layer_1"
   version="1.1"
   viewBox="0 0 104 104"
   width="104"
   xml:space="preserve"
   sodipodi:docname="about-info.svg"
   inkscape:version="0.92.4 5da689c313, 2019-01-14"><metadata
     id="metadata13"><rdf:RDF><cc:Work
         rdf:about=""><dc:format>image/svg+xml</dc:format><dc:type
           rdf:resource="http://purl.org/dc/dcmitype/StillImage" /><dc:title></dc:title></cc:Work></rdf:RDF></metadata><defs
     id="defs11"><linearGradient
       inkscape:collect="always"
       id="linearGradient2146"><stop
         style="stop-color:#9edbb7;stop-opacity:1;"
         offset="0"
         id="stop2142" /><stop
         style="stop-color:#9edbb7;stop-opacity:0.66666669"
         offset="1"
         id="stop2144" /></linearGradient><linearGradient
       inkscape:collect="always"
       id="linearGradient2129"><stop
         style="stop-color:#328655;stop-opacity:1;"
         offset="0"
         id="stop2125" /><stop
         style="stop-color:#3ea86a;stop-opacity:1"
         offset="1"
         id="stop2127" /></linearGradient><linearGradient
       inkscape:collect="always"
       xlink:href="#linearGradient2129"
       id="linearGradient2131"
       x1="34.690121"
       y1="53.507824"
       x2="36.147491"
       y2="53.05719"
       gradientUnits="userSpaceOnUse" /><linearGradient
       inkscape:collect="always"
       xlink:href="#linearGradient2129"
       id="linearGradient2139"
       x1="38.079056"
       y1="84.167465"
       x2="116.76703"
       y2="9.3819351"
       gradientUnits="userSpaceOnUse" /><linearGradient
       inkscape:collect="always"
       xlink:href="#linearGradient2146"
       id="linearGradient2148"
       x1="36.2439"
       y1="96.05645"
       x2="110.54836"
       y2="21.654432"
       gradientUnits="userSpaceOnUse" /></defs><sodipodi:namedview
     pagecolor="#ffffff"
     bordercolor="#666666"
     borderopacity="1"
     objecttolerance="10"
     gridtolerance="10"
     guidetolerance="10"
     inkscape:pageopacity="0"
     inkscape:pageshadow="2"
     inkscape:window-width="950"
     inkscape:window-height="1014"
     id="namedview9"
     showgrid="false"
     inkscape:zoom="1.3037281"
     inkscape:cx="46.278969"
     inkscape:cy="62.654813"
     inkscape:window-x="0"
     inkscape:window-y="0"
     inkscape:window-maximized="0"
     inkscape:current-layer="layer1"
     inkscape:snap-object-midpoints="true"
     inkscape:snap-center="true"
     inkscape:snap-text-baseline="true"
     fit-margin-top="0"
     fit-margin-left="0"
     fit-margin-right="0"
     fit-margin-bottom="0" /><g
     inkscape:groupmode="layer"
     id="layer1"
     inkscape:label="Layer 1"
     transform="translate(-12,-11.457626)"><path
       style="opacity:1;fill:url(#linearGradient2148);fill-opacity:1;stroke:none;stroke-width:0.1;stroke-miterlimit:4;stroke-dasharray:none;stroke-opacity:1"
       d="M 114,63.457626 A 50,50 0 0 1 64,113.45763 50,50 0 0 1 14,63.457626 a 50,50 0 0 1 50,-50 50,50 0 0 1 50,50 z"
       id="path821"
       inkscape:connector-curvature="0" /><path
       style="opacity:1;fill:none;fill-opacity:1;stroke:url(#linearGradient2139);stroke-width:4;stroke-miterlimit:4;stroke-dasharray:none;stroke-opacity:1"
       d="M 114,63.457626 A 50,50 0 0 1 64,113.45763 50,50 0 0 1 14,63.457626 a 50,50 0 0 1 50,-50 50,50 0 0 1 50,50 z"
       id="path1514"
       inkscape:connector-curvature="0" /><g
       aria-label="i"
       transform="matrix(21.714045,0,0,15.884274,-693.16274,-792.4781)"
       style="font-style:normal;font-weight:normal;font-size:5.33333349px;line-height:1.25;font-family:sans-serif;letter-spacing:0px;word-spacing:0px;fill:url(#linearGradient2131);fill-opacity:1;stroke:none"
       id="flowRoot2108"><path
         d="m 35.388021,52.346354 q 0,0.07292 -0.02344,0.145834 -0.02083,0.07031 -0.0625,0.130208 -0.04167,0.05729 -0.101562,0.09375 -0.0599,0.03646 -0.132813,0.03646 -0.08073,0 -0.125,-0.04687 -0.04427,-0.04687 -0.04427,-0.135416 0,-0.07031 0.02344,-0.140625 0.02344,-0.07292 0.0651,-0.132813 0.04167,-0.0599 0.09896,-0.09635 0.0599,-0.03906 0.132812,-0.03906 0.08073,0 0.125,0.04948 0.04427,0.04687 0.04427,0.135416 z m -0.07031,3.098959 q -0.122395,0.07292 -0.221354,0.127604 -0.09635,0.05469 -0.177083,0.09115 -0.08073,0.03906 -0.145833,0.05729 -0.0651,0.01823 -0.122396,0.01823 -0.08854,0 -0.140625,-0.08333 -0.05208,-0.08073 -0.05208,-0.221354 0,-0.07813 0.01823,-0.221354 0.02083,-0.145834 0.04948,-0.320313 0.02865,-0.177083 0.0625,-0.367187 0.03385,-0.192709 0.0625,-0.364584 0.02865,-0.174479 0.04687,-0.307291 0.02083,-0.135417 0.02083,-0.200521 0,-0.0599 -0.0078,-0.09375 -0.0078,-0.03646 -0.02083,-0.05208 -0.01302,-0.01823 -0.03385,-0.02344 -0.02083,-0.0052 -0.04427,-0.0052 -0.02083,0 -0.0651,0.01042 -0.04427,0.01042 -0.08854,0.02344 -0.04167,0.01042 -0.07552,0.02083 -0.03125,0.0078 -0.03125,0.0078 l -0.03646,-0.09635 q 0.109375,-0.04948 0.216146,-0.09375 0.109375,-0.04687 0.203125,-0.08073 0.09375,-0.03385 0.164063,-0.05469 0.07031,-0.02083 0.104166,-0.02083 0.07292,0 0.101563,0.04948 0.03125,0.04948 0.03125,0.169271 0,0.07552 -0.02083,0.223958 -0.01823,0.145833 -0.04948,0.328125 -0.03125,0.182292 -0.0651,0.382812 -0.03385,0.197917 -0.0651,0.380209 -0.03125,0.182291 -0.05208,0.330729 -0.01823,0.145833 -0.01823,0.221354 0,0.08073 0.01563,0.117188 0.01823,0.03646 0.0625,0.03646 0.08073,0 0.153646,-0.02083 0.07552,-0.02083 0.182292,-0.0651 l 0.03906,0.09635 z"
         style="font-style:italic;font-variant:normal;font-weight:normal;font-stretch:normal;font-size:5.33333349px;font-family:Gentium;-inkscape-font-specification:'Gentium Italic';fill:url(#linearGradient2131);fill-opacity:1"
         id="path2122"
         inkscape:connector-curvature="0" /></g></g></svg>