<?xml version="1.0" encoding="UTF-8" standalone="no"?>
<svg
   xmlns:dc="http://purl.org/dc/elements/1.1/"
   xmlns:cc="http://creativecommons.org/ns#"
   xmlns:rdf="http://www.w3.org/1999/02/22-rdf-syntax-ns#"
   xmlns:svg="http://www.w3.org/2000/svg"
   xmlns="http://www.w3.org/2000/svg"
   xmlns:xlink="http://www.w3.org/1999/xlink"
   xmlns:sodipodi="http://sodipodi.sourceforge.net/DTD/sodipodi-0.dtd"
   xmlns:inkscape="http://www.inkscape.org/namespaces/inkscape"
   enable-background="new 0 0 128 128"
   height="104"
   id="Layer_1"
   version="1.1"
   viewBox="0 0 104 104"
   width="104"
   xml:space="preserve"
   sodipodi:docname="help.svg"
   inkscape:version="0.92.4 5da689c313, 2019-01-14"><metadata
     id="metadata13"><rdf:RDF><cc:Work
         rdf:about=""><dc:format>image/svg+xml</dc:format><dc:type
           rdf:resource="http://purl.org/dc/dcmitype/StillImage" /><dc:title></dc:title></cc:Work></rdf:RDF></metadata><defs
     id="defs11"><linearGradient
       inkscape:collect="always"
       id="linearGradient2146"><stop
         style="stop-color:#9edbb7;stop-opacity:1;"
         offset="0"
         id="stop2142" /><stop
         style="stop-color:#9edbb7;stop-opacity:0.66666669"
         offset="1"
         id="stop2144" /></linearGradient><linearGradient
       inkscape:collect="always"
       id="linearGradient2129"><stop
         style="stop-color:#328655;stop-opacity:1;"
         offset="0"
         id="stop2125" /><stop
         style="stop-color:#3ea86a;stop-opacity:1"
         offset="1"
         id="stop2127" /></linearGradient><linearGradient
       inkscape:collect="always"
       xlink:href="#linearGradient2129"
       id="linearGradient2131"
       x1="34.690121"
       y1="53.507824"
       x2="36.147491"
       y2="53.05719"
       gradientUnits="userSpaceOnUse" /><linearGradient
       inkscape:collect="always"
       xlink:href="#linearGradient2129"
       id="linearGradient2139"
       x1="38.079056"
       y1="84.167465"
       x2="116.76703"
       y2="9.3819351"
       gradientUnits="userSpaceOnUse" /><linearGradient
       inkscape:collect="always"
       xlink:href="#linearGradient2146"
       id="linearGradient2148"
       x1="36.2439"
       y1="96.05645"
       x2="110.54836"
       y2="21.654432"
       gradientUnits="userSpaceOnUse" /><linearGradient
       inkscape:collect="always"
       xlink:href="#linearGradient2129"
       id="linearGradient2169"
       x1="53.27895"
       y1="73.920158"
       x2="79.145454"
       y2="38.312305"
       gradientUnits="userSpaceOnUse"
       gradientTransform="matrix(1.0873414,0,0,1.0873415,-7.7736239,-0.11927101)" /></defs><sodipodi:namedview
     pagecolor="#ffffff"
     bordercolor="#666666"
     borderopacity="1"
     objecttolerance="10"
     gridtolerance="10"
     guidetolerance="10"
     inkscape:pageopacity="0"
     inkscape:pageshadow="2"
     inkscape:window-width="950"
     inkscape:window-height="1014"
     id="namedview9"
     showgrid="false"
     inkscape:zoom="5.2149125"
     inkscape:cx="50.419431"
     inkscape:cy="52.491986"
     inkscape:window-x="0"
     inkscape:window-y="0"
     inkscape:window-maximized="0"
     inkscape:current-layer="layer1"
     inkscape:snap-object-midpoints="true"
     inkscape:snap-center="true"
     inkscape:snap-text-baseline="true"
     fit-margin-top="0"
     fit-margin-left="0"
     fit-margin-right="0"
     fit-margin-bottom="0" /><g
     inkscape:groupmode="layer"
     id="layer1"
     inkscape:label="Layer 1"
     transform="translate(-12,-11.457626)"><path
       style="opacity:1;fill:url(#linearGradient2148);fill-opacity:1;stroke:none;stroke-width:0.1;stroke-miterlimit:4;stroke-dasharray:none;stroke-opacity:1"
       d="M 114,63.457626 A 50,50 0 0 1 64,113.45763 50,50 0 0 1 14,63.457626 a 50,50 0 0 1 50,-50 50,50 0 0 1 50,50 z"
       id="path821"
       inkscape:connector-curvature="0" /><path
       style="opacity:1;fill:none;fill-opacity:1;stroke:url(#linearGradient2139);stroke-width:4;stroke-miterlimit:4;stroke-dasharray:none;stroke-opacity:1"
       d="M 114,63.457626 A 50,50 0 0 1 64,113.45763 50,50 0 0 1 14,63.457626 a 50,50 0 0 1 50,-50 50,50 0 0 1 50,50 z"
       id="path1514"
       inkscape:connector-curvature="0" /><g
       aria-label="i"
       transform="matrix(21.714045,0,0,15.884274,-693.16274,-792.4781)"
       style="font-style:normal;font-weight:normal;font-size:5.33333349px;line-height:1.25;font-family:sans-serif;letter-spacing:0px;word-spacing:0px;fill:url(#linearGradient2131);fill-opacity:1;stroke:none"
       id="flowRoot2108" /><g
       transform="translate(12,11.457626)"
       style="font-style:normal;font-weight:normal;font-size:10.66666698px;line-height:1.25;font-family:sans-serif;letter-spacing:0px;word-spacing:0px;fill:#000000;fill-opacity:1;stroke:none"
       id="flowRoot2151" /><g
       aria-label="?"
       transform="matrix(1.1036735,-0.09733702,0.07929247,0.89907198,0,0)"
       inkscape:transform-center-x="13.889295"
       inkscape:transform-center-y="32.410288"
       style="font-style:italic;font-variant:normal;font-weight:normal;font-stretch:normal;font-size:96.39946747px;line-height:1.25;font-family:Gentium;-inkscape-font-specification:'Gentium Italic';letter-spacing:0px;word-spacing:0px;fill:url(#linearGradient2169);fill-opacity:1;stroke:none;stroke-width:9.03744984"
       id="text2161"><path
         d="m 52.987969,102.10077 q 0,1.45917 -0.51777,3.01248 -0.470701,1.50624 -1.412102,2.77714 -0.894331,1.22382 -2.212292,2.02401 -1.270892,0.80019 -2.871273,0.80019 -1.788662,0 -2.871274,-1.27089 -1.082611,-1.27089 -1.082611,-3.38905 0,-1.36503 0.517771,-2.8242 0.56484,-1.50624 1.506242,-2.73006 0.941401,-1.223824 2.212292,-2.024015 1.270891,-0.800191 2.777133,-0.800191 1.835732,0 2.871273,1.223821 1.082611,1.223825 1.082611,3.200765 z m 17.27471,-48.670435 q 0,4.142164 -1.223822,7.248788 -1.176751,3.106623 -3.012483,5.648406 -1.835732,2.541783 -4.048024,4.707005 -2.165223,2.165223 -4.189235,4.471655 -1.976942,2.306433 -3.530254,4.942356 -1.506242,2.588853 -2.024012,5.977896 l -0.564841,4.518725 q -0.894331,0.658981 -1.600382,1.129682 -0.706051,0.42363 -1.882802,0.800191 l -1.082611,-0.988471 0.23535,-5.460127 q 0.04707,-3.153693 1.223822,-5.789616 1.176751,-2.635923 2.871273,-5.036496 1.741592,-2.400572 3.718534,-4.612865 1.976942,-2.259362 3.624394,-4.565795 1.694522,-2.306432 2.824203,-4.801145 1.129681,-2.541783 1.129681,-5.460126 0,-4.707006 -2.071082,-7.201718 -2.024012,-2.541783 -6.119107,-2.541783 -1.929872,0 -3.436114,0.894331 -1.506241,0.894331 -2.447642,2.447643 -0.894331,1.506241 -1.176752,3.530253 -0.28242,2.024013 0.14121,4.283375 -1.035541,0.470701 -1.882802,0.800191 -0.80019,0.28242 -1.600381,0.517771 -0.753121,0.18828 -1.553312,0.32949 -0.800191,0.09414 -1.835732,0.18828 L 39.808355,57.94906 q 0,-3.012484 1.317961,-5.883757 1.317962,-2.871273 3.765604,-5.130636 2.447643,-2.259362 5.883757,-3.624394 3.483184,-1.365031 7.813629,-1.365031 3.012483,0 5.177705,0.894331 2.212293,0.894331 3.624395,2.447643 1.459171,1.553311 2.165222,3.671464 0.706051,2.071082 0.706051,4.471655 z"
         style="fill:url(#linearGradient2169);fill-opacity:1;stroke-width:9.03744984"
         id="path2190"
         inkscape:connector-curvature="0" /></g></g></svg>