<?xml version="1.0" encoding="UTF-8" standalone="no"?>
<svg
   xmlns:dc="http://purl.org/dc/elements/1.1/"
   xmlns:cc="http://creativecommons.org/ns#"
   xmlns:rdf="http://www.w3.org/1999/02/22-rdf-syntax-ns#"
   xmlns:svg="http://www.w3.org/2000/svg"
   xmlns="http://www.w3.org/2000/svg"
   xmlns:xlink="http://www.w3.org/1999/xlink"
   xmlns:sodipodi="http://sodipodi.sourceforge.net/DTD/sodipodi-0.dtd"
   xmlns:inkscape="http://www.inkscape.org/namespaces/inkscape"
   height="20"
   id="Layer_1"
   version="1.2"
   viewBox="0 0 20 20"
   width="20"
   xml:space="preserve"
   sodipodi:docname="home-page.svg"
   inkscape:version="0.92.4 5da689c313, 2019-01-14"><metadata
     id="metadata9"><rdf:RDF><cc:Work
         rdf:about=""><dc:format>image/svg+xml</dc:format><dc:type
           rdf:resource="http://purl.org/dc/dcmitype/StillImage" /><dc:title></dc:title></cc:Work></rdf:RDF></metadata><defs
     id="defs7"><linearGradient
       inkscape:collect="always"
       id="linearGradient830"><stop
         style="stop-color:#328655;stop-opacity:1;"
         offset="0"
         id="stop826" /><stop
         style="stop-color:#3ea86a;stop-opacity:1"
         offset="1"
         id="stop828" /></linearGradient><linearGradient
       inkscape:collect="always"
       xlink:href="#linearGradient830"
       id="linearGradient832"
       x1="5.393187"
       y1="10.653911"
       x2="12.449538"
       y2="5.6202693"
       gradientUnits="userSpaceOnUse"
       gradientTransform="translate(0,1.2089992)" /></defs><sodipodi:namedview
     pagecolor="#ffffff"
     bordercolor="#666666"
     borderopacity="1"
     objecttolerance="10"
     gridtolerance="10"
     guidetolerance="10"
     inkscape:pageopacity="0"
     inkscape:pageshadow="2"
     inkscape:window-width="950"
     inkscape:window-height="1014"
     id="namedview5"
     showgrid="false"
     fit-margin-top="0"
     fit-margin-left="0"
     fit-margin-right="0"
     fit-margin-bottom="0"
     inkscape:zoom="13.906433"
     inkscape:cx="3.91569"
     inkscape:cy="5.7342086"
     inkscape:window-x="0"
     inkscape:window-y="0"
     inkscape:window-maximized="0"
     inkscape:current-layer="Layer_1" /><path
     d="m 10,1.2089992 c 0,0 -6.186,5.34 -9.643,8.232 -0.203,0.184 -0.357,0.452 -0.357,0.7679998 0,0.553 0.447,1 1,1 h 2 v 7 c 0,0.553 0.447,1 1,1 h 3 c 0.553,0 1,-0.448 1,-1 v -4 h 4 v 4 c 0,0.552 0.447,1 1,1 h 3 c 0.553,0 1,-0.447 1,-1 v -7 h 2 c 0.553,0 1,-0.447 1,-1 0,-0.3159998 -0.154,-0.5839998 -0.383,-0.7679998 -3.433,-2.892 -9.617,-8.232 -9.617,-8.232 z"
     id="path2"
     style="fill:url(#linearGradient832);fill-opacity:1"
     inkscape:connector-curvature="0" /></svg>