<?xml version="1.0" encoding="UTF-8" standalone="no"?>
<!-- Created with Inkscape (http://www.inkscape.org/) -->

<svg
   xmlns:dc="http://purl.org/dc/elements/1.1/"
   xmlns:cc="http://creativecommons.org/ns#"
   xmlns:rdf="http://www.w3.org/1999/02/22-rdf-syntax-ns#"
   xmlns:svg="http://www.w3.org/2000/svg"
   xmlns="http://www.w3.org/2000/svg"
   xmlns:sodipodi="http://sodipodi.sourceforge.net/DTD/sodipodi-0.dtd"
   xmlns:inkscape="http://www.inkscape.org/namespaces/inkscape"
   width="210mm"
   height="210mm"
   viewBox="0 0 210 210"
   version="1.1"
   id="svg6112"
   inkscape:version="0.92.4 5da689c313, 2019-01-14"
   sodipodi:docname="logo.svg">
  <defs
     id="defs6106" />
  <sodipodi:namedview
     id="base"
     pagecolor="#ffffff"
     bordercolor="#666666"
     borderopacity="1.0"
     inkscape:pageopacity="0.0"
     inkscape:pageshadow="2"
     inkscape:zoom="0.7"
     inkscape:cx="325.68944"
     inkscape:cy="492.08219"
     inkscape:document-units="mm"
     inkscape:current-layer="layer1"
     showgrid="false"
     inkscape:window-width="1920"
     inkscape:window-height="1019"
     inkscape:window-x="0"
     inkscape:window-y="0"
     inkscape:window-maximized="1" />
  <metadata
     id="metadata6109">
    <rdf:RDF>
      <cc:Work
         rdf:about="">
        <dc:format>image/svg+xml</dc:format>
        <dc:type
           rdf:resource="http://purl.org/dc/dcmitype/StillImage" />
        <dc:title></dc:title>
      </cc:Work>
    </rdf:RDF>
  </metadata>
  <g
     inkscape:label="Layer 1"
     inkscape:groupmode="layer"
     id="layer1"
     transform="translate(0,-87)">
    <path
       sodipodi:type="star"
       style="opacity:0.12999998;fill:#16502d;fill-opacity:1;fill-rule:evenodd;stroke:none;stroke-width:4.41225815;stroke-linecap:round;stroke-linejoin:miter;stroke-miterlimit:4;stroke-dasharray:none;stroke-opacity:1"
       id="path6080"
       sodipodi:sides="18"
       sodipodi:cx="103.72794"
       sodipodi:cy="191.67274"
       sodipodi:r1="105.32726"
       sodipodi:r2="90.826752"
       sodipodi:arg1="-1.5707963"
       sodipodi:arg2="1.7489977"
       inkscape:flatsided="false"
       inkscape:rounded="0.013248959"
       inkscape:randomized="0"
       d="M 103.72795,86.345482 C 101.13938,86.335996 85.078763,280.61166 87.628019,281.06117 90.178089,281.51083 142.18198,93.592035 139.75199,92.697494 137.32278,91.803238 55.784545,268.86959 58.02632,270.16389 60.268811,271.45861 173.4085,112.65908 171.43101,110.98738 169.45415,109.31622 32.273008,247.81645 33.936911,249.79942 c 1.664434,1.98361 162.293599,-108.54308 161.007119,-110.7903 -1.28607,-2.24651 -177.564039,80.98242 -176.678699,83.4149 0.885622,2.43325 189.630019,-46.48946 189.189719,-49.04116 -0.44016,-2.55089 -194.553238,15.36811 -194.553247,17.95669 -9e-6,2.58941 194.094257,21.17149 194.553247,18.62308 0.45884,-2.54759 -188.076446,-52.09982 -188.961802,-49.66735 -0.885639,2.43324 175.147862,86.27883 176.450782,84.0411 C 196.24653,242.09936 36.029171,131.05262 34.365255,133.03559 32.700808,135.01918 169.44131,274.01527 171.431,272.35811 173.42006,270.70148 60.84521,111.55412 58.603426,112.8484 c -2.242499,1.2947 78.712084,178.67631 81.148564,177.7996 2.4357,-0.87643 -48.918451,-188.9289 -51.46771,-188.4794 -2.550073,0.44964 12.85427,194.82192 15.44366,194.83141 2.58857,0.009 18.64918,-194.26618 16.09993,-194.71569 C 117.2778,101.83466 65.273907,289.75345 67.703895,290.648 70.133108,291.54225 151.67134,114.4759 149.42957,113.1816 147.18708,111.88688 34.047391,270.68641 36.024882,272.35811 38.001741,274.02927 175.18288,135.52904 173.51898,133.54607 171.85454,131.56246 11.225378,242.08915 12.511857,244.33637 13.797925,246.58288 190.0759,163.35395 189.19056,160.92147 188.30493,158.48822 -0.43946054,207.41093 8.3784411e-4,209.96263 0.44099572,212.51352 194.55408,194.59452 194.55408,192.00594 194.55409,189.41653 0.4598271,170.83445 8.3882426e-4,173.38285 -0.45800298,175.93045 188.07728,225.48268 188.96264,223.05021 189.84828,220.61697 13.814774,136.77138 12.511859,139.00911 11.209361,141.24613 171.42672,252.29287 173.09063,250.3099 174.75508,248.32631 38.014575,109.33022 36.024886,110.98738 34.035832,112.64401 146.61068,271.79137 148.85246,270.49709 151.09496,269.20239 70.140379,91.820784 67.703901,92.697492 65.268199,93.57392 116.62235,281.62638 119.17161,281.17689 121.72168,280.72725 106.31734,86.354971 103.72795,86.345482 Z"
       inkscape:transform-center-y="-5.1496006"
       transform="matrix(1.0026228,0,0,0.98739867,0.99999733,2.7425871)"
       inkscape:transform-center-x="3.5592731e-06" />
  </g>
</svg>
