<?xml version="1.0" encoding="UTF-8" standalone="no"?>
<svg
   xmlns:dc="http://purl.org/dc/elements/1.1/"
   xmlns:cc="http://creativecommons.org/ns#"
   xmlns:rdf="http://www.w3.org/1999/02/22-rdf-syntax-ns#"
   xmlns:svg="http://www.w3.org/2000/svg"
   xmlns="http://www.w3.org/2000/svg"
   xmlns:sodipodi="http://sodipodi.sourceforge.net/DTD/sodipodi-0.dtd"
   xmlns:inkscape="http://www.inkscape.org/namespaces/inkscape"
   height="352"
   version="1.1"
   viewBox="0 0 352 352"
   width="352"
   xml:space="preserve"
   id="svg956"
   sodipodi:docname="menu-disc-list-04.svg"
   inkscape:version="0.92.4 5da689c313, 2019-01-14"><metadata
     id="metadata962"><rdf:RDF><cc:Work
         rdf:about=""><dc:format>image/svg+xml</dc:format><dc:type
           rdf:resource="http://purl.org/dc/dcmitype/StillImage" /><dc:title></dc:title></cc:Work></rdf:RDF></metadata><defs
     id="defs960" /><sodipodi:namedview
     pagecolor="#ffffff"
     bordercolor="#666666"
     borderopacity="1"
     objecttolerance="10"
     gridtolerance="10"
     guidetolerance="10"
     inkscape:pageopacity="0"
     inkscape:pageshadow="2"
     inkscape:window-width="1920"
     inkscape:window-height="1019"
     id="namedview958"
     showgrid="false"
     inkscape:zoom="1.4589844"
     inkscape:cx="37.659976"
     inkscape:cy="153.68541"
     inkscape:window-x="0"
     inkscape:window-y="0"
     inkscape:window-maximized="1"
     inkscape:current-layer="svg956"
     fit-margin-top="0"
     fit-margin-left="0"
     fit-margin-right="0"
     fit-margin-bottom="0" /><style
     type="text/css"
     id="style902">
<![CDATA[
	.st0{display:inline;}
	.st1{fill:none;stroke:#000000;stroke-width:16;stroke-linecap:round;stroke-linejoin:round;stroke-miterlimit:10;}
	.st2{display:none;}
]]>
</style><g
     class="st2"
     id="Layer"
     style="display:none"
     transform="translate(-84,-57)"><g
       class="st0"
       id="g925"
       style="display:inline"><g
         id="line"><polyline
           class="st1"
           points="175,257 428,257 428,256.999    "
           id="polyline904"
           style="fill:none;stroke:#000000;stroke-width:16;stroke-linecap:round;stroke-linejoin:round;stroke-miterlimit:10" /><g
           id="g908"><path
             d="m 107.5,248.5 c 4.136,0 7.5,3.364 7.5,7.5 0,4.136 -3.364,7.5 -7.5,7.5 -4.136,0 -7.5,-3.364 -7.5,-7.5 0,-4.136 3.364,-7.5 7.5,-7.5 m 0,-16 C 94.521,232.5 84,243.021 84,256 c 0,12.979 10.521,23.5 23.5,23.5 12.979,0 23.5,-10.521 23.5,-23.5 0,-12.979 -10.521,-23.5 -23.5,-23.5 z"
             id="path906"
             inkscape:connector-curvature="0" /></g></g><g
         id="line_1_"><polyline
           class="st1"
           points="175,127 428,127 428,126.999    "
           id="polyline911"
           style="fill:none;stroke:#000000;stroke-width:16;stroke-linecap:round;stroke-linejoin:round;stroke-miterlimit:10" /><g
           id="g915"><path
             d="m 107.5,119 c 4.136,0 7.5,3.364 7.5,7.5 0,4.136 -3.364,7.5 -7.5,7.5 -4.136,0 -7.5,-3.364 -7.5,-7.5 0,-4.136 3.364,-7.5 7.5,-7.5 m 0,-16 C 94.521,103 84,113.521 84,126.5 84,139.479 94.521,150 107.5,150 120.479,150 131,139.479 131,126.5 131,113.521 120.479,103 107.5,103 Z"
             id="path913"
             inkscape:connector-curvature="0" /></g></g><g
         id="line_2_"><polyline
           class="st1"
           points="175,386 428,386 428,385.999    "
           id="polyline918"
           style="fill:none;stroke:#000000;stroke-width:16;stroke-linecap:round;stroke-linejoin:round;stroke-miterlimit:10" /><g
           id="g922"><path
             d="m 107.5,378 c 4.136,0 7.5,3.364 7.5,7.5 0,4.136 -3.364,7.5 -7.5,7.5 -4.136,0 -7.5,-3.364 -7.5,-7.5 0,-4.136 3.364,-7.5 7.5,-7.5 m 0,-16 C 94.521,362 84,372.521 84,385.5 84,398.479 94.521,409 107.5,409 120.479,409 131,398.479 131,385.5 131,372.521 120.479,362 107.5,362 Z"
             id="path920"
             inkscape:connector-curvature="0" /></g></g></g></g><g
     id="Layer_copy"
     style="fill:#ffffff;fill-opacity:1"
     transform="translate(-84,-80)"><g
       id="line_5_"
       style="fill:#ffffff;fill-opacity:1"><g
         id="g930"
         style="fill:#ffffff;fill-opacity:1"><path
           d="M 428,265 H 175 c -4.418,0 -8,-3.582 -8,-8 0,-4.418 3.582,-8 8,-8 h 253 c 4.418,0 8,3.582 8,8 0,4.418 -3.582,8 -8,8 z"
           id="path928"
           style="fill:#ffffff;fill-opacity:1"
           inkscape:connector-curvature="0" /></g><g
         id="g934"
         style="fill:#ffffff;fill-opacity:1"><path
           d="m 107.5,248.5 c 4.136,0 7.5,3.364 7.5,7.5 0,4.136 -3.364,7.5 -7.5,7.5 -4.136,0 -7.5,-3.364 -7.5,-7.5 0,-4.136 3.364,-7.5 7.5,-7.5 m 0,-16 C 94.521,232.5 84,243.021 84,256 c 0,12.979 10.521,23.5 23.5,23.5 12.979,0 23.5,-10.521 23.5,-23.5 0,-12.979 -10.521,-23.5 -23.5,-23.5 z"
           id="path932"
           style="fill:#ffffff;fill-opacity:1"
           inkscape:connector-curvature="0" /></g></g><g
       id="line_4_"
       style="fill:#ffffff;fill-opacity:1"><g
         id="g939"
         style="fill:#ffffff;fill-opacity:1"><path
           d="M 428,135 H 175 c -4.418,0 -8,-3.582 -8,-8 0,-4.418 3.582,-8 8,-8 h 253 c 4.418,0 8,3.582 8,8 0,4.418 -3.582,8 -8,8 z"
           id="path937"
           style="fill:#ffffff;fill-opacity:1"
           inkscape:connector-curvature="0" /></g><g
         id="g943"
         style="fill:#ffffff;fill-opacity:1"><path
           d="m 107.5,119 c 4.136,0 7.5,3.364 7.5,7.5 0,4.136 -3.364,7.5 -7.5,7.5 -4.136,0 -7.5,-3.364 -7.5,-7.5 0,-4.136 3.364,-7.5 7.5,-7.5 m 0,-16 C 94.521,103 84,113.521 84,126.5 84,139.479 94.521,150 107.5,150 120.479,150 131,139.479 131,126.5 131,113.521 120.479,103 107.5,103 Z"
           id="path941"
           style="fill:#ffffff;fill-opacity:1"
           inkscape:connector-curvature="0" /></g></g><g
       id="line_3_"
       style="fill:#ffffff;fill-opacity:1"><g
         id="g948"
         style="fill:#ffffff;fill-opacity:1"><path
           d="M 428,394 H 175 c -4.418,0 -8,-3.582 -8,-8 0,-4.418 3.582,-8 8,-8 h 253 c 4.418,0 8,3.582 8,8 0,4.418 -3.582,8 -8,8 z"
           id="path946"
           style="fill:#ffffff;fill-opacity:1"
           inkscape:connector-curvature="0" /></g><g
         id="g952"
         style="fill:#ffffff;fill-opacity:1"><path
           d="m 107.5,378 c 4.136,0 7.5,3.364 7.5,7.5 0,4.136 -3.364,7.5 -7.5,7.5 -4.136,0 -7.5,-3.364 -7.5,-7.5 0,-4.136 3.364,-7.5 7.5,-7.5 m 0,-16 C 94.521,362 84,372.521 84,385.5 84,398.479 94.521,409 107.5,409 120.479,409 131,398.479 131,385.5 131,372.521 120.479,362 107.5,362 Z"
           id="path950"
           style="fill:#ffffff;fill-opacity:1"
           inkscape:connector-curvature="0" /></g></g></g></svg>