<?xml version="1.0" encoding="UTF-8" standalone="no"?>
<!-- Created with Inkscape (http://www.inkscape.org/) -->

<svg
   xmlns:dc="http://purl.org/dc/elements/1.1/"
   xmlns:cc="http://creativecommons.org/ns#"
   xmlns:rdf="http://www.w3.org/1999/02/22-rdf-syntax-ns#"
   xmlns:svg="http://www.w3.org/2000/svg"
   xmlns="http://www.w3.org/2000/svg"
   xmlns:sodipodi="http://sodipodi.sourceforge.net/DTD/sodipodi-0.dtd"
   xmlns:inkscape="http://www.inkscape.org/namespaces/inkscape"
   width="810mm"
   height="210mm"
   viewBox="0 0 810 210"
   version="1.1"
   id="svg6112"
   inkscape:version="0.92.4 5da689c313, 2019-01-14"
   sodipodi:docname="logo-text-2.svg">
  <defs
     id="defs6106" />
  <sodipodi:namedview
     id="base"
     pagecolor="#ffffff"
     bordercolor="#666666"
     borderopacity="1.0"
     inkscape:pageopacity="0.0"
     inkscape:pageshadow="2"
     inkscape:zoom="0.175"
     inkscape:cx="1031.4488"
     inkscape:cy="841.95248"
     inkscape:document-units="mm"
     inkscape:current-layer="layer1"
     showgrid="false"
     inkscape:window-width="1920"
     inkscape:window-height="1019"
     inkscape:window-x="0"
     inkscape:window-y="0"
     inkscape:window-maximized="1" />
  <metadata
     id="metadata6109">
    <rdf:RDF>
      <cc:Work
         rdf:about="">
        <dc:format>image/svg+xml</dc:format>
        <dc:type
           rdf:resource="http://purl.org/dc/dcmitype/StillImage" />
        <dc:title></dc:title>
      </cc:Work>
    </rdf:RDF>
  </metadata>
  <g
     inkscape:label="Layer 1"
     inkscape:groupmode="layer"
     id="layer1"
     transform="translate(0,-87)">
    <path
       sodipodi:type="star"
       style="opacity:0.15;fill:#16502d;fill-opacity:1;fill-rule:evenodd;stroke:none;stroke-width:4.41225815;stroke-linecap:round;stroke-linejoin:miter;stroke-miterlimit:4;stroke-dasharray:none;stroke-opacity:1"
       id="path6080"
       sodipodi:sides="18"
       sodipodi:cx="103.72794"
       sodipodi:cy="191.67274"
       sodipodi:r1="105.32726"
       sodipodi:r2="90.826752"
       sodipodi:arg1="-1.5707963"
       sodipodi:arg2="1.7489977"
       inkscape:flatsided="false"
       inkscape:rounded="0.013248959"
       inkscape:randomized="0"
       d="M 103.72795,86.345482 C 101.13938,86.335996 85.078763,280.61166 87.628019,281.06117 90.178089,281.51083 142.18198,93.592035 139.75199,92.697494 137.32278,91.803238 55.784545,268.86959 58.02632,270.16389 60.268811,271.45861 173.4085,112.65908 171.43101,110.98738 169.45415,109.31622 32.273008,247.81645 33.936911,249.79942 c 1.664434,1.98361 162.293599,-108.54308 161.007119,-110.7903 -1.28607,-2.24651 -177.564039,80.98242 -176.678699,83.4149 0.885622,2.43325 189.630019,-46.48946 189.189719,-49.04116 -0.44016,-2.55089 -194.553238,15.36811 -194.553247,17.95669 -9e-6,2.58941 194.094257,21.17149 194.553247,18.62308 0.45884,-2.54759 -188.076446,-52.09982 -188.961802,-49.66735 -0.885639,2.43324 175.147862,86.27883 176.450782,84.0411 C 196.24653,242.09936 36.029171,131.05262 34.365255,133.03559 32.700808,135.01918 169.44131,274.01527 171.431,272.35811 173.42006,270.70148 60.84521,111.55412 58.603426,112.8484 c -2.242499,1.2947 78.712084,178.67631 81.148564,177.7996 2.4357,-0.87643 -48.918451,-188.9289 -51.46771,-188.4794 -2.550073,0.44964 12.85427,194.82192 15.44366,194.83141 2.58857,0.009 18.64918,-194.26618 16.09993,-194.71569 C 117.2778,101.83466 65.273907,289.75345 67.703895,290.648 70.133108,291.54225 151.67134,114.4759 149.42957,113.1816 147.18708,111.88688 34.047391,270.68641 36.024882,272.35811 38.001741,274.02927 175.18288,135.52904 173.51898,133.54607 171.85454,131.56246 11.225378,242.08915 12.511857,244.33637 13.797925,246.58288 190.0759,163.35395 189.19056,160.92147 188.30493,158.48822 -0.43946054,207.41093 8.3784411e-4,209.96263 0.44099572,212.51352 194.55408,194.59452 194.55408,192.00594 194.55409,189.41653 0.4598271,170.83445 8.3882426e-4,173.38285 -0.45800298,175.93045 188.07728,225.48268 188.96264,223.05021 189.84828,220.61697 13.814774,136.77138 12.511859,139.00911 11.209361,141.24613 171.42672,252.29287 173.09063,250.3099 174.75508,248.32631 38.014575,109.33022 36.024886,110.98738 34.035832,112.64401 146.61068,271.79137 148.85246,270.49709 151.09496,269.20239 70.140379,91.820784 67.703901,92.697492 65.268199,93.57392 116.62235,281.62638 119.17161,281.17689 121.72168,280.72725 106.31734,86.354971 103.72795,86.345482 Z"
       inkscape:transform-center-y="-5.1496006"
       transform="matrix(1.0026228,0,0,0.98739867,0.99999733,2.7425871)"
       inkscape:transform-center-x="3.5592731e-06" />
    <g
       aria-label="plantlogg"
       transform="matrix(0.78795127,0,0,0.78817734,-396.72125,48.554496)"
       style="font-style:normal;font-weight:normal;font-size:40px;line-height:1.25;font-family:sans-serif;letter-spacing:0px;word-spacing:0px;opacity:0.75;fill:#16502d;fill-opacity:0.52173911;stroke:none"
       id="flowRoot66">
      <path
         d="m 865.53516,185.87148 q 0,-8.15625 -1.96875,-15.1875 -1.875,-7.03125 -5.15625,-12.09375 -3.1875,-5.15625 -7.40625,-8.0625 -4.21875,-2.90625 -8.71875,-2.90625 -1.6875,0 -4.40625,1.03125 -2.71875,1.03125 -6.1875,3.46875 -3.46875,2.34375 -7.40625,6.46875 -3.9375,4.03125 -8.0625,10.03125 v 37.21875 q 4.21875,3.1875 7.78125,5.25 3.65625,2.0625 6.75,3.28125 3.1875,1.125 6,1.59375 2.8125,0.46875 5.34375,0.46875 5.0625,0 9.28125,-1.96875 4.3125,-1.96875 7.40625,-5.8125 3.1875,-3.84375 4.96875,-9.5625 1.78125,-5.71875 1.78125,-13.21875 z m 12.46875,-6.1875 q 0,5.4375 -1.40625,11.15625 -1.3125,5.71875 -3.84375,11.15625 -2.4375,5.4375 -5.8125,10.3125 -3.28125,4.875 -7.3125,8.53125 -3.9375,3.5625 -8.34375,5.625 -4.40625,2.15625 -9,2.15625 -5.53125,0 -12.46875,-3.09375 -6.9375,-3.09375 -13.59375,-8.90625 v 44.34375 q 0,1.5 3.46875,3 3.5625,1.5 12.375,2.8125 v 4.03125 h -43.03125 v -4.03125 q 6.1875,-1.5 9.65625,-2.90625 3.46875,-1.3125 3.46875,-2.90625 v -101.8125 q 0,-3.46875 -0.375,-5.71875 -0.375,-2.25 -1.78125,-3.5625 -1.3125,-1.40625 -3.9375,-1.96875 -2.53125,-0.65625 -7.03125,-0.84375 v -3.75 q 3.1875,-0.65625 6.09375,-1.40625 2.90625,-0.84375 5.625,-1.6875 2.71875,-0.9375 5.34375,-1.96875 2.71875,-1.125 5.4375,-2.4375 l 3.28125,3.28125 0.84375,18.5625 q 4.6875,-5.625 9.375,-9.75 4.78125,-4.125 9.09375,-6.75 4.3125,-2.71875 7.96875,-4.03125 3.75,-1.3125 6.46875,-1.3125 6.375,0 11.71875,3 5.4375,3 9.375,8.71875 3.9375,5.625 6.09375,13.78125 2.25,8.15625 2.25,18.375 z"
         style="letter-spacing:-18.50449371px;fill:#16502d;fill-opacity:0.52173911"
         id="path878" />
      <path
         d="m 872.71816,225.80898 v -4.03125 q 4.03125,-0.65625 6.75,-1.3125 2.71875,-0.75 4.3125,-1.40625 1.59375,-0.75 2.25,-1.5 0.75,-0.75 0.75,-1.5 v -111.75 q 0,-4.21875 -0.5625,-6.562496 -0.5625,-2.34375 -2.0625,-3.46875 -1.5,-1.21875 -4.03125,-1.59375 -2.53125,-0.46875 -6.46875,-0.9375 v -3.75 q 6.75,-1.3125 12.375,-2.90625 5.625,-1.59375 11.4375,-4.59375 l 3.375,3.1875 V 216.05898 q 0,1.40625 3.1875,2.90625 3.1875,1.5 10.875,2.8125 v 4.03125 z"
         style="letter-spacing:-6.72890663px;fill:#16502d;fill-opacity:0.52173911"
         id="path880" />
      <path
         d="m 945.39551,216.43398 q 5.625,0 11.90625,-2.8125 6.375,-2.90625 13.5,-9.09375 v -24.46875 l -11.15625,2.15625 q -6.375,1.125 -11.0625,3.28125 -4.59375,2.15625 -7.59375,5.0625 -3,2.90625 -4.40625,6.46875 -1.40625,3.46875 -1.40625,7.3125 0,3.75 1.125,6.09375 1.125,2.34375 2.71875,3.75 1.6875,1.3125 3.375,1.78125 1.78125,0.46875 3,0.46875 z m 53.8125,1.6875 q -7.96875,5.53125 -13.21875,7.96875 -5.15625,2.53125 -7.78125,2.53125 -3.09375,0 -5.15625,-4.3125 -2.0625,-4.3125 -2.25,-11.90625 -4.21875,4.21875 -8.4375,7.3125 -4.21875,3.09375 -8.25,5.0625 -4.03125,1.96875 -7.6875,2.90625 -3.5625,0.9375 -6.5625,0.9375 -3.375,0 -6.9375,-1.125 -3.5625,-1.125 -6.46875,-3.5625 -2.8125,-2.4375 -4.6875,-6.28125 -1.875,-3.84375 -1.875,-9.28125 0,-5.53125 1.96875,-10.5 2.0625,-5.0625 6,-9.1875 4.03125,-4.125 9.9375,-7.125 5.90625,-3.09375 13.78125,-4.6875 l 19.21875,-3.84375 v -13.03125 q 0,-3.1875 -0.75,-5.90625 -0.75,-2.8125 -2.53125,-4.78125 -1.78125,-2.0625 -4.875,-3.09375 -3,-1.125 -7.59375,-1.03125 -3,0.0937 -5.90625,1.03125 -2.90625,0.9375 -5.0625,2.625 -2.15625,1.6875 -3.375,4.03125 -1.21875,2.25 -0.9375,5.0625 0.0937,0.84375 -1.96875,1.96875 -1.96875,1.03125 -4.78125,1.875 -2.71875,0.84375 -5.4375,1.3125 -2.625,0.46875 -3.75,0.1875 l -1.3125,-3.65625 q 2.15625,-4.6875 6.5625,-9 4.40625,-4.3125 10.03125,-7.59375 5.71875,-3.28125 12,-5.25 6.375,-1.96875 12.28125,-1.96875 10.3125,0 15.84375,5.4375 5.625,5.34375 5.625,15 v 52.875 q 0,3.9375 1.03125,5.625 1.03125,1.6875 2.71875,1.6875 1.3125,0 3.375,-0.46875 2.0625,-0.46875 5.8125,-2.0625 l 1.40625,4.21875 z"
         style="letter-spacing:-3.36445332px;fill:#16502d;fill-opacity:0.52173911"
         id="path882" />
      <path
         d="m 1059.9686,225.80898 v -4.03125 q 6.75,-1.78125 9.9375,-3.09375 3.1875,-1.3125 3.1875,-2.625 v -49.59375 q 0,-5.71875 -0.6563,-9.28125 -0.6562,-3.5625 -2.0625,-5.625 -1.4062,-2.0625 -3.75,-2.8125 -2.25,-0.75 -5.5312,-0.75 -2.9063,0 -6.4688,1.40625 -3.5625,1.40625 -7.6875,4.5 -4.0312,3.09375 -8.5312,8.15625 -4.4063,4.96875 -8.9063,12.28125 v 41.71875 q 0,1.40625 3.4688,2.90625 3.5625,1.5 9.6562,2.8125 v 4.03125 h -40.3125 v -4.03125 q 6.1875,-1.59375 9.6563,-2.8125 3.4687,-1.3125 3.4687,-2.90625 v -56.90625 q 0,-3.65625 -0.2812,-5.8125 -0.2813,-2.15625 -1.5938,-3.375 -1.2187,-1.21875 -3.8437,-1.78125 -2.625,-0.5625 -7.4063,-1.125 v -3.75 q 6.375,-1.03125 11.8125,-2.90625 5.4375,-1.96875 10.6875,-4.59375 l 3.2813,3.28125 1.0312,23.34375 q 4.125,-6.28125 9.0938,-11.15625 4.9687,-4.96875 10.0312,-8.34375 5.0625,-3.46875 9.75,-5.25 4.7813,-1.875 8.4375,-1.875 4.0313,0 7.7813,1.21875 3.75,1.21875 6.5625,3.75 2.9062,2.53125 4.5937,6.46875 1.7813,3.84375 1.7813,9.09375 v 59.71875 q 0,1.3125 2.8125,2.625 2.9062,1.21875 10.3125,3.09375 v 4.03125 z"
         style="letter-spacing:-11.77558708px;fill:#16502d;fill-opacity:0.52173911"
         id="path884" />
      <path
         d="m 1154.693,214.84023 q -4.5938,3.375 -9.0938,6 -4.5,2.53125 -8.625,4.3125 -4.0312,1.6875 -7.5,2.53125 -3.4687,0.9375 -5.9062,0.9375 -3.2813,0 -6.2813,-1.21875 -2.9062,-1.21875 -5.1562,-3.9375 -2.25,-2.8125 -3.5625,-7.3125 -1.3125,-4.5 -1.3125,-11.0625 v -57.65625 h -12.0938 l -1.9687,-2.625 7.3125,-6.1875 h 6.75 v -23.0625 l 11.1562,-9.75 2.9063,2.34375 v 30.46875 h 30.6562 l 2.7188,2.71875 q -0.8438,1.3125 -2.1563,2.8125 -1.2187,1.40625 -2.5312,2.8125 -1.3125,1.3125 -2.625,2.34375 -1.2188,1.03125 -2.1563,1.40625 -2.25,-1.125 -6.8437,-2.15625 -4.5938,-1.125 -12.1875,-1.125 h -4.875 v 49.59375 q 0,5.625 0.4687,9.375 0.5625,3.65625 1.7813,5.90625 1.2187,2.15625 3.0937,3.09375 1.9688,0.84375 4.7813,0.84375 3.2812,0 8.25,-1.21875 4.9687,-1.21875 12.2812,-4.96875 l 2.7188,4.78125 z"
         style="letter-spacing:-5.04667997px;fill:#16502d;fill-opacity:0.52173911"
         id="path886" />
      <path
         d="m 1213.805,109.84098 v 108.096 h 30.72 q 5.376,0 5.376,3.84 0,4.032 -5.376,4.032 h -69.312 q -5.184,0 -5.184,-4.032 0,-3.84 5.184,-3.84 h 30.72 v -100.224 h -22.464 q -5.184,0 -5.184,-4.032 0,-3.84 5.184,-3.84 z"
         style="letter-spacing:-33.64453506px;fill:#16502d;fill-opacity:0.89130435"
         id="path888" />
      <path
         d="m 1291.5202,143.05698 q 18.432,0 31.104,12.672 12.672,12.48 12.672,30.72 0,17.664 -12.864,30.144 -12.864,12.288 -30.912,12.288 -18.24,0 -31.104,-12.48 -12.672,-12.48 -12.672,-30.528 0,-17.664 12.672,-30.144 12.864,-12.672 31.104,-12.672 z m 0,7.872 q -14.976,0 -25.536,10.176 -10.368,10.176 -10.368,24.768 0,14.592 10.368,24.96 10.56,10.176 25.536,10.176 14.784,0 25.344,-10.176 10.56,-10.176 10.56,-24.384 0,-15.168 -10.368,-25.344 -10.368,-10.176 -25.536,-10.176 z"
         style="font-style:normal;font-variant:normal;font-weight:normal;font-stretch:normal;font-size:192px;font-family:FreeMono;-inkscape-font-specification:FreeMono;letter-spacing:-20.18671989px;fill:#16502d;fill-opacity:0.89130435"
         id="path890" />
      <path
         d="m 1413.4132,161.68098 v -15.936 h 18.24 q 5.184,0 5.184,3.84 0,4.032 -5.184,4.032 h -10.368 v 77.568 q 0,12.288 -9.216,21.312 -9.216,9.024 -22.464,9.024 h -21.888 q -5.184,0 -5.184,-4.032 0,-3.84 5.184,-3.84 h 22.272 q 9.792,0 16.512,-6.912 6.912,-6.912 6.912,-16.704 v -24.768 q -12.672,18.624 -32.832,18.624 -16.32,0 -28.032,-11.904 -11.52,-11.904 -11.52,-28.608 0,-16.704 11.52,-28.416 11.712,-11.904 28.032,-11.904 20.352,0 32.832,18.624 z m -32.256,-10.752 q -13.44,0 -22.848,9.408 -9.408,9.408 -9.408,23.04 0,13.632 9.408,23.232 9.408,9.408 22.848,9.408 13.44,0 22.848,-9.408 9.408,-9.408 9.408,-22.848 0,-14.016 -9.408,-23.424 -9.216,-9.408 -22.848,-9.408 z"
         style="letter-spacing:-26.91562653px;fill:#16502d;fill-opacity:0.89130435"
         id="path892" />
      <path
         d="m 1501.6973,161.68098 v -15.936 h 18.24 q 5.184,0 5.184,3.84 0,4.032 -5.184,4.032 h -10.368 v 77.568 q 0,12.288 -9.216,21.312 -9.216,9.024 -22.464,9.024 h -21.888 q -5.184,0 -5.184,-4.032 0,-3.84 5.184,-3.84 h 22.272 q 9.792,0 16.512,-6.912 6.912,-6.912 6.912,-16.704 v -24.768 q -12.672,18.624 -32.832,18.624 -16.32,0 -28.032,-11.904 -11.52,-11.904 -11.52,-28.608 0,-16.704 11.52,-28.416 11.712,-11.904 28.032,-11.904 20.352,0 32.832,18.624 z m -32.256,-10.752 q -13.44,0 -22.848,9.408 -9.408,9.408 -9.408,23.04 0,13.632 9.408,23.232 9.408,9.408 22.848,9.408 13.44,0 22.848,-9.408 9.408,-9.408 9.408,-22.848 0,-14.016 -9.408,-23.424 -9.216,-9.408 -22.848,-9.408 z"
         style="letter-spacing:-26.91562653px;fill:#16502d;fill-opacity:0.89130435"
         id="path894" />
    </g>
  </g>
</svg>
